<mxfile host="65bd71144e">
    <diagram id="nGJAZczyJ2OJR0BzKGWw" name="Page-1">
        <mxGraphModel dx="1382" dy="917" grid="1" gridSize="10" guides="1" tooltips="1" connect="1" arrows="1" fold="1" page="1" pageScale="1" pageWidth="1200" pageHeight="1920" background="#ffffff" math="0" shadow="0">
            <root>
                <mxCell id="0"/>
                <mxCell id="1" parent="0"/>
                <mxCell id="2" value="&lt;h1&gt;Basic Role&lt;/h1&gt;&lt;div&gt;The original type roles that were available in the cloud console.&lt;/div&gt;&lt;div&gt;You apply them to a google cloud project and they affet all resources in that project&lt;/div&gt;" style="text;html=1;strokeColor=none;fillColor=none;spacing=5;spacingTop=-20;whiteSpace=wrap;overflow=hidden;rounded=0;labelBorderColor=none;" vertex="1" parent="1">
                    <mxGeometry x="50" y="90" width="190" height="130" as="geometry"/>
                </mxCell>
                <mxCell id="3" value="" style="shape=actor;whiteSpace=wrap;html=1;labelBorderColor=none;strokeColor=default;fillColor=#0066CC;" vertex="1" parent="1">
                    <mxGeometry x="370" y="70" width="40" height="60" as="geometry"/>
                </mxCell>
                <mxCell id="5" value="Owner" style="swimlane;fontStyle=1;childLayout=stackLayout;horizontal=1;startSize=30;horizontalStack=0;resizeParent=1;resizeParentMax=0;resizeLast=0;collapsible=1;marginBottom=0;labelBorderColor=none;strokeColor=default;fillColor=#0066CC;fontColor=#FFFFFF;fontSize=13;" vertex="1" parent="1">
                    <mxGeometry x="320" y="150" width="140" height="150" as="geometry"/>
                </mxCell>
                <mxCell id="6" value="Invite membersÂ " style="text;strokeColor=none;fillColor=none;align=left;verticalAlign=middle;spacingLeft=4;spacingRight=4;overflow=hidden;points=[[0,0.5],[1,0.5]];portConstraint=eastwest;rotatable=0;labelBorderColor=none;" vertex="1" parent="5">
                    <mxGeometry y="30" width="140" height="30" as="geometry"/>
                </mxCell>
                <mxCell id="7" value="Remove members" style="text;strokeColor=none;fillColor=none;align=left;verticalAlign=middle;spacingLeft=4;spacingRight=4;overflow=hidden;points=[[0,0.5],[1,0.5]];portConstraint=eastwest;rotatable=0;labelBorderColor=none;" vertex="1" parent="5">
                    <mxGeometry y="60" width="140" height="30" as="geometry"/>
                </mxCell>
                <mxCell id="8" value="Delete projects" style="text;strokeColor=none;fillColor=none;align=left;verticalAlign=middle;spacingLeft=4;spacingRight=4;overflow=hidden;points=[[0,0.5],[1,0.5]];portConstraint=eastwest;rotatable=0;labelBorderColor=none;" vertex="1" parent="5">
                    <mxGeometry y="90" width="140" height="30" as="geometry"/>
                </mxCell>
                <mxCell id="9" value="And..." style="text;strokeColor=none;fillColor=none;align=left;verticalAlign=middle;spacingLeft=4;spacingRight=4;overflow=hidden;points=[[0,0.5],[1,0.5]];portConstraint=eastwest;rotatable=0;labelBorderColor=none;" vertex="1" parent="5">
                    <mxGeometry y="120" width="140" height="30" as="geometry"/>
                </mxCell>
                <mxCell id="10" value="" style="shape=actor;whiteSpace=wrap;html=1;labelBorderColor=none;strokeColor=default;fillColor=#FF1212;" vertex="1" parent="1">
                    <mxGeometry x="570" y="70" width="40" height="60" as="geometry"/>
                </mxCell>
                <mxCell id="11" value="Editor" style="swimlane;fontStyle=1;childLayout=stackLayout;horizontal=1;startSize=30;horizontalStack=0;resizeParent=1;resizeParentMax=0;resizeLast=0;collapsible=1;marginBottom=0;labelBorderColor=none;strokeColor=default;fillColor=#C90E0E;fontColor=#FFFFFF;fontSize=13;" vertex="1" parent="1">
                    <mxGeometry x="520" y="150" width="140" height="150" as="geometry"/>
                </mxCell>
                <mxCell id="12" value="Deploy applications" style="text;strokeColor=none;fillColor=none;align=left;verticalAlign=middle;spacingLeft=4;spacingRight=4;overflow=hidden;points=[[0,0.5],[1,0.5]];portConstraint=eastwest;rotatable=0;labelBorderColor=none;" vertex="1" parent="11">
                    <mxGeometry y="30" width="140" height="30" as="geometry"/>
                </mxCell>
                <mxCell id="13" value="Modify code" style="text;strokeColor=none;fillColor=none;align=left;verticalAlign=middle;spacingLeft=4;spacingRight=4;overflow=hidden;points=[[0,0.5],[1,0.5]];portConstraint=eastwest;rotatable=0;labelBorderColor=none;" vertex="1" parent="11">
                    <mxGeometry y="60" width="140" height="30" as="geometry"/>
                </mxCell>
                <mxCell id="14" value="Configure services" style="text;strokeColor=none;fillColor=none;align=left;verticalAlign=middle;spacingLeft=4;spacingRight=4;overflow=hidden;points=[[0,0.5],[1,0.5]];portConstraint=eastwest;rotatable=0;labelBorderColor=none;" vertex="1" parent="11">
                    <mxGeometry y="90" width="140" height="30" as="geometry"/>
                </mxCell>
                <mxCell id="15" value="And..." style="text;strokeColor=none;fillColor=none;align=left;verticalAlign=middle;spacingLeft=4;spacingRight=4;overflow=hidden;points=[[0,0.5],[1,0.5]];portConstraint=eastwest;rotatable=0;labelBorderColor=none;" vertex="1" parent="11">
                    <mxGeometry y="120" width="140" height="30" as="geometry"/>
                </mxCell>
                <mxCell id="16" style="edgeStyle=orthogonalEdgeStyle;html=1;exitX=1;exitY=0.5;exitDx=0;exitDy=0;entryX=0;entryY=0.5;entryDx=0;entryDy=0;fontSize=13;fontColor=#FFFFFF;" edge="1" parent="1" source="9" target="12">
                    <mxGeometry relative="1" as="geometry"/>
                </mxCell>
                <mxCell id="17" value="" style="shape=actor;whiteSpace=wrap;html=1;labelBorderColor=none;strokeColor=default;fillColor=#FF8000;" vertex="1" parent="1">
                    <mxGeometry x="770" y="70" width="40" height="60" as="geometry"/>
                </mxCell>
                <mxCell id="18" value="Viewer" style="swimlane;fontStyle=1;childLayout=stackLayout;horizontal=1;startSize=30;horizontalStack=0;resizeParent=1;resizeParentMax=0;resizeLast=0;collapsible=1;marginBottom=0;labelBorderColor=none;strokeColor=default;fillColor=#FF8000;fontColor=#FFFFFF;fontSize=13;" vertex="1" parent="1">
                    <mxGeometry x="720" y="150" width="140" height="60" as="geometry"/>
                </mxCell>
                <mxCell id="19" value="Read-only access" style="text;strokeColor=none;fillColor=none;align=left;verticalAlign=middle;spacingLeft=4;spacingRight=4;overflow=hidden;points=[[0,0.5],[1,0.5]];portConstraint=eastwest;rotatable=0;labelBorderColor=none;" vertex="1" parent="18">
                    <mxGeometry y="30" width="140" height="30" as="geometry"/>
                </mxCell>
                <mxCell id="23" style="edgeStyle=orthogonalEdgeStyle;html=1;exitX=1;exitY=0.5;exitDx=0;exitDy=0;entryX=0;entryY=0.5;entryDx=0;entryDy=0;fontSize=13;fontColor=#FFFFFF;" edge="1" parent="1" source="15" target="19">
                    <mxGeometry relative="1" as="geometry"/>
                </mxCell>
                <mxCell id="24" value="" style="endArrow=none;html=1;fontSize=13;fontColor=#FFFFFF;" edge="1" parent="1">
                    <mxGeometry width="50" height="50" relative="1" as="geometry">
                        <mxPoint x="910" y="310" as="sourcePoint"/>
                        <mxPoint x="910" y="70" as="targetPoint"/>
                    </mxGeometry>
                </mxCell>
                <mxCell id="25" value="" style="shape=actor;whiteSpace=wrap;html=1;labelBorderColor=none;strokeColor=default;fillColor=#009900;" vertex="1" parent="1">
                    <mxGeometry x="1000" y="70" width="40" height="60" as="geometry"/>
                </mxCell>
                <mxCell id="26" value="Billing administrator" style="swimlane;fontStyle=1;childLayout=stackLayout;horizontal=1;startSize=30;horizontalStack=0;resizeParent=1;resizeParentMax=0;resizeLast=0;collapsible=1;marginBottom=0;labelBorderColor=none;strokeColor=default;fillColor=#009900;fontColor=#FFFFFF;fontSize=13;" vertex="1" parent="1">
                    <mxGeometry x="960" y="150" width="140" height="90" as="geometry"/>
                </mxCell>
                <mxCell id="27" value="Manage billing" style="text;strokeColor=none;fillColor=none;align=left;verticalAlign=middle;spacingLeft=4;spacingRight=4;overflow=hidden;points=[[0,0.5],[1,0.5]];portConstraint=eastwest;rotatable=0;labelBorderColor=none;" vertex="1" parent="26">
                    <mxGeometry y="30" width="140" height="30" as="geometry"/>
                </mxCell>
                <mxCell id="28" value="Add and remove &#10;administrators" style="text;strokeColor=none;fillColor=none;align=left;verticalAlign=middle;spacingLeft=4;spacingRight=4;overflow=hidden;points=[[0,0.5],[1,0.5]];portConstraint=eastwest;rotatable=0;labelBorderColor=none;" vertex="1" parent="26">
                    <mxGeometry y="60" width="140" height="30" as="geometry"/>
                </mxCell>
                <mxCell id="29" value="&lt;h1&gt;Predifined Role&lt;/h1&gt;&lt;div&gt;This provides members with granular access to specific GCP resources and prevents unwantes access to other resources&lt;/div&gt;&lt;div&gt;A collection of permissions&lt;/div&gt;&lt;div&gt;&lt;b&gt;These permissions usually align with the ations corresponding rest API&lt;/b&gt;&lt;/div&gt;" style="text;html=1;strokeColor=none;fillColor=none;spacing=5;spacingTop=-20;whiteSpace=wrap;overflow=hidden;rounded=0;labelBorderColor=none;" vertex="1" parent="1">
                    <mxGeometry x="50" y="390" width="190" height="180" as="geometry"/>
                </mxCell>
                <mxCell id="30" value="Role Title" style="swimlane;fontStyle=1;childLayout=stackLayout;horizontal=1;startSize=30;horizontalStack=0;resizeParent=1;resizeParentMax=0;resizeLast=0;collapsible=1;marginBottom=0;labelBorderColor=none;fontSize=13;fontColor=#000000;strokeColor=default;fillColor=#FFFF00;" vertex="1" parent="1">
                    <mxGeometry x="320" y="400" width="140" height="130" as="geometry"/>
                </mxCell>
                <mxCell id="32" value="Compute Admin" style="text;strokeColor=default;fillColor=none;align=left;verticalAlign=middle;spacingLeft=4;spacingRight=4;overflow=hidden;points=[[0,0.5],[1,0.5]];portConstraint=eastwest;rotatable=0;labelBorderColor=none;fontSize=13;fontColor=#000000;" vertex="1" parent="30">
                    <mxGeometry y="30" width="140" height="30" as="geometry"/>
                </mxCell>
                <mxCell id="38" value="Network Admin" style="text;strokeColor=default;fillColor=none;align=left;verticalAlign=middle;spacingLeft=4;spacingRight=4;overflow=hidden;points=[[0,0.5],[1,0.5]];portConstraint=eastwest;rotatable=0;labelBorderColor=none;fontSize=13;fontColor=#000000;" vertex="1" parent="30">
                    <mxGeometry y="60" width="140" height="40" as="geometry"/>
                </mxCell>
                <mxCell id="33" value="Storage Admin" style="text;strokeColor=default;fillColor=none;align=left;verticalAlign=middle;spacingLeft=4;spacingRight=4;overflow=hidden;points=[[0,0.5],[1,0.5]];portConstraint=eastwest;rotatable=0;labelBorderColor=none;fontSize=13;fontColor=#000000;" vertex="1" parent="30">
                    <mxGeometry y="100" width="140" height="30" as="geometry"/>
                </mxCell>
                <mxCell id="34" value="Description" style="swimlane;fontStyle=1;childLayout=stackLayout;horizontal=1;startSize=30;horizontalStack=0;resizeParent=1;resizeParentMax=0;resizeLast=0;collapsible=1;marginBottom=0;labelBorderColor=none;fontSize=13;fontColor=#FFFFFF;strokeColor=default;fillColor=#B3B3B3;" vertex="1" parent="1">
                    <mxGeometry x="460" y="400" width="440" height="130" as="geometry"/>
                </mxCell>
                <mxCell id="35" value="Full control of all Compute Engine resources" style="text;strokeColor=default;fillColor=none;align=left;verticalAlign=middle;spacingLeft=4;spacingRight=4;overflow=hidden;points=[[0,0.5],[1,0.5]];portConstraint=eastwest;rotatable=0;labelBorderColor=none;fontSize=13;fontColor=#000000;" vertex="1" parent="34">
                    <mxGeometry y="30" width="440" height="30" as="geometry"/>
                </mxCell>
                <mxCell id="36" value="Permissions to create, modify,and delete networking resources, except for &#10;firewall rules and SSL certificates" style="text;strokeColor=default;fillColor=none;align=left;verticalAlign=middle;spacingLeft=4;spacingRight=4;overflow=hidden;points=[[0,0.5],[1,0.5]];portConstraint=eastwest;rotatable=0;labelBorderColor=none;fontSize=13;fontColor=#000000;" vertex="1" parent="34">
                    <mxGeometry y="60" width="440" height="40" as="geometry"/>
                </mxCell>
                <mxCell id="37" value="Permission to create,modify, and delete disks, images , and snapshots" style="text;strokeColor=default;fillColor=none;align=left;verticalAlign=middle;spacingLeft=4;spacingRight=4;overflow=hidden;points=[[0,0.5],[1,0.5]];portConstraint=eastwest;rotatable=0;labelBorderColor=none;fontSize=13;fontColor=#000000;" vertex="1" parent="34">
                    <mxGeometry y="100" width="440" height="30" as="geometry"/>
                </mxCell>
                <mxCell id="43" value="&lt;h1&gt;Custom Role&lt;/h1&gt;&lt;div&gt;Let you define a precise set of permissions&lt;/div&gt;" style="text;html=1;strokeColor=none;fillColor=none;spacing=5;spacingTop=-20;whiteSpace=wrap;overflow=hidden;rounded=0;labelBorderColor=none;" vertex="1" parent="1">
                    <mxGeometry x="50" y="630" width="190" height="90" as="geometry"/>
                </mxCell>
            </root>
        </mxGraphModel>
    </diagram>
</mxfile>